<svg xmlns="http://www.w3.org/2000/svg" viewBox="0 0 145.35 212.04"><defs><style>.cls-1{fill:#26484a;}.cls-2{fill:#ffdc83;}.cls-3{fill:#429993;}</style></defs><g id="Layer_2" data-name="Layer 2"><g id="Layer_1-2" data-name="Layer 1"><path class="cls-1" d="M0,194.62v-3.55H15.39v3.55H9.63V211.8H5.76V194.62Z"/><path class="cls-1" d="M20.2,191.07H33.07v3.55h-9V199h7.22v3.55H24.07v5.72h9.3v3.55H20.2Z"/><path class="cls-1" d="M52.11,198A5.09,5.09,0,0,0,47,194.39a5.58,5.58,0,0,0-4.25,1.8,9.12,9.12,0,0,0,0,10.49,5.58,5.58,0,0,0,4.25,1.8,5.09,5.09,0,0,0,5.14-3.61l3.48.89c-1,4-4.1,6.28-8.62,6.28a9.57,9.57,0,0,1-7-2.82c-1.9-1.86-2.85-4.47-2.85-7.79A10.41,10.41,0,0,1,40,193.65a9.57,9.57,0,0,1,7-2.82c4.52,0,7.64,2.28,8.62,6.28Z"/><path class="cls-1" d="M60.46,211.8V191.07h3.86V199h8.32v-7.88h3.87V211.8H72.64v-9.3H64.32v9.3Z"/><path class="cls-1" d="M94,191.07h3.86V211.8H93.74L86.1,198.12V211.8H82.24V191.07h4.07L94,204.75Z"/><path class="cls-1" d="M107.4,191.07V211.8h-3.86V191.07Z"/><path class="cls-1" d="M113.14,191.07H126.3v3.55H117v4.74h7.49v3.56H117v8.88h-3.86Z"/><path class="cls-1" d="M129.48,191.07h4.16l3.77,8.05,3.78-8.05h4.16l-6,11.9v8.83h-3.86V203Z"/><path class="cls-2" d="M28.44,88.75A55,55,0,0,1,39.38,121.6v-.09H106v.08a55.07,55.07,0,0,1,10.91-32.8l.37-.48a55.42,55.42,0,1,0-100-33,55,55,0,0,0,10.93,33Z"/><path class="cls-3" d="M72.73,142.32a2.43,2.43,0,0,1-2.43-2.43V82.81A50.4,50.4,0,0,1,75,62.64a2.44,2.44,0,0,1,4.4,2.1,44.89,44.89,0,0,0-4.25,18.19v57A2.43,2.43,0,0,1,72.73,142.32Z"/><path class="cls-3" d="M71.18,72.38a30.68,30.68,0,0,0,0,4.6,31.29,31.29,0,0,0,32.73-28.83,32.07,32.07,0,0,0,0-4.6A31.3,31.3,0,0,0,71.18,72.38Z"/><path class="cls-3" d="M70.56,81.93a28.63,28.63,0,0,0,4.18-.61A28.57,28.57,0,0,0,40.08,56,28.74,28.74,0,0,0,70.56,81.93Z"/><path class="cls-1" d="M39.38,121.51v14.91h0a33.3,33.3,0,0,0,66.59,0h0v-14.9Z"/></g></g></svg>