<svg xmlns="http://www.w3.org/2000/svg" viewBox="0 0 429.95 73.87"><defs><style>.cls-1{fill:#26484a;}.cls-2{fill:#ffdc83;}.cls-3{fill:#429993;}</style></defs><g id="Layer_2" data-name="Layer 2"><g id="Layer_1-2" data-name="Layer 1"><path class="cls-1" d="M84.76,22.17V13.7h36.55v8.47H107.62V63.1H98.45V22.17Z"/><path class="cls-1" d="M132.74,13.7H163.3v8.47H141.91V32.54h17.15V41H141.91V54.63H164V63.1H132.74Z"/><path class="cls-1" d="M208.53,30.21c-2.19-5.71-6.21-8.6-12.21-8.6a13.19,13.19,0,0,0-10.09,4.3c-2.61,2.89-3.95,7.06-3.95,12.49s1.34,9.6,3.95,12.49a13.19,13.19,0,0,0,10.09,4.3c6,0,10-2.89,12.21-8.6l8.25,2.11c-2.33,9.53-9.73,15-20.46,15A22.74,22.74,0,0,1,179.74,57C175.22,52.51,173,46.3,173,38.4s2.26-14.11,6.78-18.56a22.74,22.74,0,0,1,16.58-6.7c10.73,0,18.13,5.43,20.46,15Z"/><path class="cls-1" d="M228.35,63.1V13.7h9.18V32.47h19.75V13.7h9.18V63.1h-9.18V40.94H237.53V63.1Z"/><path class="cls-1" d="M307.88,13.7h9.17V63.1h-9.67L289.25,30.5V63.1h-9.18V13.7h9.67l18.14,32.6Z"/><path class="cls-1" d="M339.84,13.7V63.1h-9.17V13.7Z"/><path class="cls-1" d="M353.46,13.7h31.26v8.47H362.63V33.46h17.78v8.47H362.63V63.1h-9.17Z"/><path class="cls-1" d="M392.27,13.7h9.88l9,19.2,9-19.2H430L415.69,42.07v21h-9.17v-21Z"/><path class="cls-2" d="M4.89,38.65A24.07,24.07,0,0,1,9.64,53v0H38.57v0a23.91,23.91,0,0,1,4.74-14.28l.16-.21a24.1,24.1,0,1,0-38.72,0Z"/><path class="cls-3" d="M24.13,62a1.06,1.06,0,0,1-1.06-1.06V36.07a22,22,0,0,1,2.05-8.79,1.06,1.06,0,1,1,1.91.91,19.64,19.64,0,0,0-1.84,7.92V60.92A1.06,1.06,0,0,1,24.13,62Z"/><path class="cls-3" d="M23.45,31.52a15,15,0,0,0,0,2A13.61,13.61,0,0,0,37.68,21a13.34,13.34,0,0,0,0-2A13.61,13.61,0,0,0,23.45,31.52Z"/><path class="cls-3" d="M23.18,35.68A11.91,11.91,0,0,0,25,35.41,12.49,12.49,0,0,0,11.76,24.1a12.29,12.29,0,0,0-1.82.27A12.5,12.5,0,0,0,23.18,35.68Z"/><path class="cls-1" d="M9.64,52.92v6.49h0a14.47,14.47,0,0,0,28.93,0h0V52.92Z"/></g></g></svg>